<svg xmlns="http://www.w3.org/2000/svg" viewBox="0 0 260 180" role="img" aria-label="ALUNA líneas onduladas">
  <g fill="none" stroke="#C9C2B8" stroke-width="3" stroke-linecap="round" opacity=".95">
    <path d="M46 54c17-11 34 11 51 0s34 11 51 0 34 11 51 0 34 11 51 0"/>
    <path d="M46 74c17-11 34 11 51 0s34 11 51 0 34 11 51 0 34 11 51 0"/>
    <path d="M46 94c17-11 34 11 51 0s34 11 51 0 34 11 51 0 34 11 51 0"/>
    <path d="M46 114c17-11 34 11 51 0s34 11 51 0 34 11 51 0 34 11 51 0"/>
  </g>
</svg>
