<svg xmlns="http://www.w3.org/2000/svg" viewBox="0 0 400 400" role="img" aria-label="ALUNA patrón lunas y estrellas">
  <rect width="400" height="400" fill="#F7F3ED"/>
  <g fill="#C9B6E4" opacity=".9">
    <path d="M73 46c-15 3-27 16-27 31 0 15 10 27 25 31-4 1-8 1-11 1-18 0-33-15-33-34S42 41 60 41c4 0 9 1 13 2z"/>
    <path d="M279 64c-15 3-27 16-27 31 0 15 10 27 25 31-4 1-8 1-11 1-18 0-33-15-33-34s15-34 33-34c4 0 9 1 13 2z"/>
    <path d="M132 235c-15 3-27 16-27 31 0 15 10 27 25 31-4 1-8 1-11 1-18 0-33-15-33-34s15-34 33-34c4 0 9 1 13 2z"/>
    <path d="M311 276c-15 3-27 16-27 31 0 15 10 27 25 31-4 1-8 1-11 1-18 0-33-15-33-34s15-34 33-34c4 0 9 1 13 2z"/>
    <path d="M113 66l3 7 7 3-7 3-3 7-3-7-7-3 7-3z"/>
    <path d="M209 157l4 8 8 4-8 4-4 8-4-8-8-4 8-4z"/>
    <path d="M346 109l3 7 7 3-7 3-3 7-3-7-7-3 7-3z"/>
    <circle cx="71" cy="174" r="2.5"/>
    <circle cx="161" cy="65" r="2.5"/>
    <circle cx="297" cy="169" r="2.2"/>
    <circle cx="82" cy="319" r="2.2"/>
  </g>
</svg>
